<svg width="1200" height="900" viewBox="0 0 1200 900" xmlns="http://www.w3.org/2000/svg">
  <defs>
    <linearGradient id="bg" x1="0" y1="0" x2="1" y2="1">
      <stop offset="0%" stop-color="#f6f0df"/>
      <stop offset="100%" stop-color="#e3d8be"/>
    </linearGradient>
    <linearGradient id="box" x1="0" y1="0" x2="1" y2="1">
      <stop offset="0%" stop-color="#27342f"/>
      <stop offset="100%" stop-color="#17211d"/>
    </linearGradient>
  </defs>
  <rect width="1200" height="900" fill="url(#bg)"/>
  <ellipse cx="610" cy="690" rx="360" ry="70" fill="#9f9276" opacity="0.25"/>
  <rect x="280" y="250" width="640" height="420" rx="34" fill="url(#box)"/>
  <rect x="335" y="305" width="530" height="240" rx="18" fill="#202a26"/>
  <rect x="330" y="345" width="540" height="12" rx="6" fill="#2e3b35"/>
  <rect x="560" y="560" width="80" height="50" rx="8" fill="#d5a355"/>
  <rect x="520" y="220" width="160" height="40" rx="12" fill="#c14f30"/>
  <text x="600" y="248" text-anchor="middle" font-size="24" font-family="Arial, sans-serif" fill="#fff">方舟行囊</text>
  <rect x="430" y="390" width="340" height="78" rx="12" fill="#111815"/>
  <text x="600" y="438" text-anchor="middle" font-size="52" font-family="Arial, sans-serif" fill="#f6f0df">ARK PACK</text>
  <rect x="286" y="485" width="12" height="130" rx="4" fill="#0f1513"/>
  <rect x="902" y="485" width="12" height="130" rx="4" fill="#0f1513"/>
  <rect x="430" y="670" width="340" height="20" rx="10" fill="#24302b"/>
  <text x="600" y="770" text-anchor="middle" font-size="34" font-family="Arial, sans-serif" fill="#2d3d36">家庭应急箱外观图</text>
</svg>
